<svg t="1615189149220" class="icon" viewBox="0 0 1024 1024" version="1.1" xmlns="http://www.w3.org/2000/svg" p-id="3651" width="128" height="128"><path d="M914.021515 95.296382h-175.894508V35.534244a35.534244 35.534244 0 0 0-71.068488 0v59.762138H357.02224V35.534244a35.534244 35.534244 0 0 0-71.068488 0v59.762138H109.994637A110.107701 110.107701 0 0 0 0.064608 205.242563v708.7628a110.107701 110.107701 0 0 0 109.978485 109.978485h803.978422a110.107701 110.107701 0 0 0 109.978485-109.978485V205.242563A110.107701 110.107701 0 0 0 914.021515 95.296382z m38.909997 818.725133a38.958453 38.958453 0 0 1-38.909997 38.909997H109.994637a38.958453 38.958453 0 0 1-38.861541-38.926149V205.242563a38.958453 38.958453 0 0 1 38.909997-38.909997h803.978422a38.958453 38.958453 0 0 1 38.909997 38.909997z" fill="#474747" p-id="3652"></path><path d="M744.167829 410.129783l-250.193382 245.250891-137.388309-137.388308a35.534244 35.534244 0 0 0-50.248651 50.248651l139.972617 139.972617a67.595823 67.595823 0 0 0 94.795672 0.468406l252.809994-247.786744a35.534244 35.534244 0 1 0-49.747941-50.749361z" fill="#474747" p-id="3653"></path></svg>